<svg width="450" height="200" viewBox="0 0 450 200" fill="none" xmlns="http://www.w3.org/2000/svg">
<rect width="450" height="200" fill="white"/>
<rect x="25.25" y="63.25" width="49.5" height="49.5" stroke="#272727" stroke-width="0.5"/>
<rect x="75.25" y="63.25" width="49.5" height="49.5" stroke="#272727" stroke-width="0.5"/>
<rect x="175.25" y="63.25" width="49.5" height="49.5" stroke="#272727" stroke-width="0.5"/>
<rect x="125.25" y="63.25" width="49.5" height="49.5" stroke="#272727" stroke-width="0.5"/>
<rect x="225.25" y="63.25" width="49.5" height="49.5" stroke="#272727" stroke-width="0.5"/>
<rect x="275.25" y="63.25" width="49.5" height="49.5" stroke="#272727" stroke-width="0.5"/>
<rect x="375.25" y="63.25" width="49.5" height="49.5" stroke="#272727" stroke-width="0.5"/>
<rect x="325.25" y="63.25" width="49.5" height="49.5" stroke="#272727" stroke-width="0.5"/>
<path d="M54.752 90.92C54.752 92.248 54.384 93.264 53.648 93.968C52.928 94.656 51.952 95 50.72 95H50.24C49.008 95 48.024 94.656 47.288 93.968C46.568 93.264 46.208 92.248 46.208 90.92V82.28C46.208 80.936 46.568 79.92 47.288 79.232C48.008 78.544 48.992 78.2 50.24 78.2H50.72C51.968 78.2 52.952 78.544 53.672 79.232C54.392 79.92 54.752 80.936 54.752 82.28V90.92ZM52.712 81.824C52.712 81.328 52.52 80.904 52.136 80.552C51.768 80.184 51.296 80 50.72 80H50.24C49.664 80 49.184 80.184 48.8 80.552C48.432 80.904 48.248 81.328 48.248 81.824V88.328L52.712 81.824ZM48.248 91.376C48.248 91.872 48.432 92.304 48.8 92.672C49.184 93.024 49.664 93.2 50.24 93.2H50.72C51.296 93.2 51.768 93.024 52.136 92.672C52.52 92.304 52.712 91.872 52.712 91.376V84.896L48.248 91.376Z" fill="#272727"/>
<path d="M98.832 93.2V80.096L95.448 81.344V79.4L98.592 78.2H100.872V93.2H103.488V95H95.688V93.2H98.832Z" fill="#272727"/>
<path d="M148.832 93.2V80.096L145.448 81.344V79.4L148.592 78.2H150.872V93.2H153.488V95H145.688V93.2H148.832Z" fill="#272727"/>
<path d="M203.752 90.92C203.752 92.248 203.384 93.264 202.648 93.968C201.928 94.656 200.952 95 199.72 95H199.24C198.008 95 197.024 94.656 196.288 93.968C195.568 93.264 195.208 92.248 195.208 90.92V82.28C195.208 80.936 195.568 79.92 196.288 79.232C197.008 78.544 197.992 78.2 199.24 78.2H199.72C200.968 78.2 201.952 78.544 202.672 79.232C203.392 79.92 203.752 80.936 203.752 82.28V90.92ZM201.712 81.824C201.712 81.328 201.52 80.904 201.136 80.552C200.768 80.184 200.296 80 199.72 80H199.24C198.664 80 198.184 80.184 197.8 80.552C197.432 80.904 197.248 81.328 197.248 81.824V88.328L201.712 81.824ZM197.248 91.376C197.248 91.872 197.432 92.304 197.8 92.672C198.184 93.024 198.664 93.2 199.24 93.2H199.72C200.296 93.2 200.768 93.024 201.136 92.672C201.52 92.304 201.712 91.872 201.712 91.376V84.896L197.248 91.376Z" fill="#272727"/>
<path d="M253.752 90.92C253.752 92.248 253.384 93.264 252.648 93.968C251.928 94.656 250.952 95 249.72 95H249.24C248.008 95 247.024 94.656 246.288 93.968C245.568 93.264 245.208 92.248 245.208 90.92V82.28C245.208 80.936 245.568 79.92 246.288 79.232C247.008 78.544 247.992 78.2 249.24 78.2H249.72C250.968 78.2 251.952 78.544 252.672 79.232C253.392 79.92 253.752 80.936 253.752 82.28V90.92ZM251.712 81.824C251.712 81.328 251.52 80.904 251.136 80.552C250.768 80.184 250.296 80 249.72 80H249.24C248.664 80 248.184 80.184 247.8 80.552C247.432 80.904 247.248 81.328 247.248 81.824V88.328L251.712 81.824ZM247.248 91.376C247.248 91.872 247.432 92.304 247.8 92.672C248.184 93.024 248.664 93.2 249.24 93.2H249.72C250.296 93.2 250.768 93.024 251.136 92.672C251.52 92.304 251.712 91.872 251.712 91.376V84.896L247.248 91.376Z" fill="#272727"/>
<path d="M298.832 93.2V80.096L295.448 81.344V79.4L298.592 78.2H300.872V93.2H303.488V95H295.688V93.2H298.832Z" fill="#272727"/>
<path d="M353.752 90.92C353.752 92.248 353.384 93.264 352.648 93.968C351.928 94.656 350.952 95 349.72 95H349.24C348.008 95 347.024 94.656 346.288 93.968C345.568 93.264 345.208 92.248 345.208 90.92V82.28C345.208 80.936 345.568 79.92 346.288 79.232C347.008 78.544 347.992 78.2 349.24 78.2H349.72C350.968 78.2 351.952 78.544 352.672 79.232C353.392 79.92 353.752 80.936 353.752 82.28V90.92ZM351.712 81.824C351.712 81.328 351.52 80.904 351.136 80.552C350.768 80.184 350.296 80 349.72 80H349.24C348.664 80 348.184 80.184 347.8 80.552C347.432 80.904 347.248 81.328 347.248 81.824V88.328L351.712 81.824ZM347.248 91.376C347.248 91.872 347.432 92.304 347.8 92.672C348.184 93.024 348.664 93.2 349.24 93.2H349.72C350.296 93.2 350.768 93.024 351.136 92.672C351.52 92.304 351.712 91.872 351.712 91.376V84.896L347.248 91.376Z" fill="#272727"/>
<path d="M403.752 90.92C403.752 92.248 403.384 93.264 402.648 93.968C401.928 94.656 400.952 95 399.72 95H399.24C398.008 95 397.024 94.656 396.288 93.968C395.568 93.264 395.208 92.248 395.208 90.92V82.28C395.208 80.936 395.568 79.92 396.288 79.232C397.008 78.544 397.992 78.2 399.24 78.2H399.72C400.968 78.2 401.952 78.544 402.672 79.232C403.392 79.92 403.752 80.936 403.752 82.28V90.92ZM401.712 81.824C401.712 81.328 401.52 80.904 401.136 80.552C400.768 80.184 400.296 80 399.72 80H399.24C398.664 80 398.184 80.184 397.8 80.552C397.432 80.904 397.248 81.328 397.248 81.824V88.328L401.712 81.824ZM397.248 91.376C397.248 91.872 397.432 92.304 397.8 92.672C398.184 93.024 398.664 93.2 399.24 93.2H399.72C400.296 93.2 400.768 93.024 401.136 92.672C401.52 92.304 401.712 91.872 401.712 91.376V84.896L397.248 91.376Z" fill="#272727"/>
<path d="M37.7814 128.142V121.892L36.1675 122.487V121.56L37.667 120.988H38.7543V128.142H40.002V129H36.282V128.142H37.7814ZM52.5478 127.169C52.5478 127.81 52.3876 128.275 52.0671 128.565C51.7542 128.855 51.2659 129 50.602 129H48.3586V120.988H49.3315V123.506C49.5604 123.353 49.8466 123.277 50.1899 123.277H50.602C51.2735 123.277 51.7657 123.422 52.0786 123.712C52.3914 123.994 52.5478 124.46 52.5478 125.108V127.169ZM50.0755 124.135C49.8237 124.135 49.6367 124.204 49.5146 124.341C49.3925 124.471 49.3315 124.612 49.3315 124.765V128.142H50.7165C50.9988 128.142 51.2125 128.077 51.3574 127.947C51.5024 127.817 51.5749 127.634 51.5749 127.398V124.879C51.5749 124.643 51.5024 124.46 51.3574 124.33C51.2125 124.2 50.9988 124.135 50.7165 124.135H50.0755ZM57.1725 120.988V122.018H56.0852V120.988H57.1725ZM54.4598 124.135V123.277H57.1153V128.142H58.8093V129H56.1424V124.135H54.4598ZM63.2395 129C62.8503 129 62.5527 128.874 62.3467 128.622C62.1406 128.37 62.0376 128.039 62.0376 127.626V124.135H60.9502V123.277H62.0376V121.903H63.0105V123.277H64.6817V124.135H63.0105V127.684C63.0105 127.852 63.0525 127.97 63.1364 128.039C63.2204 128.107 63.3501 128.142 63.5256 128.142H64.6817V129H63.2395Z" fill="#E63946"/>
<path d="M86.7814 128.142V121.892L85.1675 122.487V121.56L86.667 120.988H87.7543V128.142H89.002V129H85.282V128.142H86.7814ZM101.548 127.169C101.548 127.81 101.388 128.275 101.067 128.565C100.754 128.855 100.266 129 99.602 129H97.3586V120.988H98.3315V123.506C98.5604 123.353 98.8466 123.277 99.1899 123.277H99.602C100.274 123.277 100.766 123.422 101.079 123.712C101.391 123.994 101.548 124.46 101.548 125.108V127.169ZM99.0755 124.135C98.8237 124.135 98.6367 124.204 98.5146 124.341C98.3925 124.471 98.3315 124.612 98.3315 124.765V128.142H99.7165C99.9988 128.142 100.212 128.077 100.357 127.947C100.502 127.817 100.575 127.634 100.575 127.398V124.879C100.575 124.643 100.502 124.46 100.357 124.33C100.212 124.2 99.9988 124.135 99.7165 124.135H99.0755ZM106.173 120.988V122.018H105.085V120.988H106.173ZM103.46 124.135V123.277H106.115V128.142H107.809V129H105.142V124.135H103.46ZM112.239 129C111.85 129 111.553 128.874 111.347 128.622C111.141 128.37 111.038 128.039 111.038 127.626V124.135H109.95V123.277H111.038V121.903H112.011V123.277H113.682V124.135H112.011V127.684C112.011 127.852 112.052 127.97 112.136 128.039C112.22 128.107 112.35 128.142 112.526 128.142H113.682V129H112.239Z" fill="#E63946"/>
<path d="M136.781 128.142V121.892L135.168 122.487V121.56L136.667 120.988H137.754V128.142H139.002V129H135.282V128.142H136.781ZM151.548 127.169C151.548 127.81 151.388 128.275 151.067 128.565C150.754 128.855 150.266 129 149.602 129H147.359V120.988H148.331V123.506C148.56 123.353 148.847 123.277 149.19 123.277H149.602C150.274 123.277 150.766 123.422 151.079 123.712C151.391 123.994 151.548 124.46 151.548 125.108V127.169ZM149.075 124.135C148.824 124.135 148.637 124.204 148.515 124.341C148.393 124.471 148.331 124.612 148.331 124.765V128.142H149.716C149.999 128.142 150.212 128.077 150.357 127.947C150.502 127.817 150.575 127.634 150.575 127.398V124.879C150.575 124.643 150.502 124.46 150.357 124.33C150.212 124.2 149.999 124.135 149.716 124.135H149.075ZM156.173 120.988V122.018H155.085V120.988H156.173ZM153.46 124.135V123.277H156.115V128.142H157.809V129H155.142V124.135H153.46ZM162.239 129C161.85 129 161.553 128.874 161.347 128.622C161.141 128.37 161.038 128.039 161.038 127.626V124.135H159.95V123.277H161.038V121.903H162.011V123.277H163.682V124.135H162.011V127.684C162.011 127.852 162.052 127.97 162.136 128.039C162.22 128.107 162.35 128.142 162.526 128.142H163.682V129H162.239Z" fill="#E63946"/>
<path d="M185.781 128.142V121.892L184.168 122.487V121.56L185.667 120.988H186.754V128.142H188.002V129H184.282V128.142H185.781ZM200.548 127.169C200.548 127.81 200.388 128.275 200.067 128.565C199.754 128.855 199.266 129 198.602 129H196.359V120.988H197.331V123.506C197.56 123.353 197.847 123.277 198.19 123.277H198.602C199.274 123.277 199.766 123.422 200.079 123.712C200.391 123.994 200.548 124.46 200.548 125.108V127.169ZM198.075 124.135C197.824 124.135 197.637 124.204 197.515 124.341C197.393 124.471 197.331 124.612 197.331 124.765V128.142H198.716C198.999 128.142 199.212 128.077 199.357 127.947C199.502 127.817 199.575 127.634 199.575 127.398V124.879C199.575 124.643 199.502 124.46 199.357 124.33C199.212 124.2 198.999 124.135 198.716 124.135H198.075ZM205.173 120.988V122.018H204.085V120.988H205.173ZM202.46 124.135V123.277H205.115V128.142H206.809V129H204.142V124.135H202.46ZM211.239 129C210.85 129 210.553 128.874 210.347 128.622C210.141 128.37 210.038 128.039 210.038 127.626V124.135H208.95V123.277H210.038V121.903H211.011V123.277H212.682V124.135H211.011V127.684C211.011 127.852 211.052 127.97 211.136 128.039C211.22 128.107 211.35 128.142 211.526 128.142H212.682V129H211.239Z" fill="#E63946"/>
<path d="M234.781 128.142V121.892L233.168 122.487V121.56L234.667 120.988H235.754V128.142H237.002V129H233.282V128.142H234.781ZM249.548 127.169C249.548 127.81 249.388 128.275 249.067 128.565C248.754 128.855 248.266 129 247.602 129H245.359V120.988H246.331V123.506C246.56 123.353 246.847 123.277 247.19 123.277H247.602C248.274 123.277 248.766 123.422 249.079 123.712C249.391 123.994 249.548 124.46 249.548 125.108V127.169ZM247.075 124.135C246.824 124.135 246.637 124.204 246.515 124.341C246.393 124.471 246.331 124.612 246.331 124.765V128.142H247.716C247.999 128.142 248.212 128.077 248.357 127.947C248.502 127.817 248.575 127.634 248.575 127.398V124.879C248.575 124.643 248.502 124.46 248.357 124.33C248.212 124.2 247.999 124.135 247.716 124.135H247.075ZM254.173 120.988V122.018H253.085V120.988H254.173ZM251.46 124.135V123.277H254.115V128.142H255.809V129H253.142V124.135H251.46ZM260.239 129C259.85 129 259.553 128.874 259.347 128.622C259.141 128.37 259.038 128.039 259.038 127.626V124.135H257.95V123.277H259.038V121.903H260.011V123.277H261.682V124.135H260.011V127.684C260.011 127.852 260.052 127.97 260.136 128.039C260.22 128.107 260.35 128.142 260.526 128.142H261.682V129H260.239Z" fill="#E63946"/>
<path d="M284.781 128.142V121.892L283.168 122.487V121.56L284.667 120.988H285.754V128.142H287.002V129H283.282V128.142H284.781ZM299.548 127.169C299.548 127.81 299.388 128.275 299.067 128.565C298.754 128.855 298.266 129 297.602 129H295.359V120.988H296.331V123.506C296.56 123.353 296.847 123.277 297.19 123.277H297.602C298.274 123.277 298.766 123.422 299.079 123.712C299.391 123.994 299.548 124.46 299.548 125.108V127.169ZM297.075 124.135C296.824 124.135 296.637 124.204 296.515 124.341C296.393 124.471 296.331 124.612 296.331 124.765V128.142H297.716C297.999 128.142 298.212 128.077 298.357 127.947C298.502 127.817 298.575 127.634 298.575 127.398V124.879C298.575 124.643 298.502 124.46 298.357 124.33C298.212 124.2 297.999 124.135 297.716 124.135H297.075ZM304.173 120.988V122.018H303.085V120.988H304.173ZM301.46 124.135V123.277H304.115V128.142H305.809V129H303.142V124.135H301.46ZM310.239 129C309.85 129 309.553 128.874 309.347 128.622C309.141 128.37 309.038 128.039 309.038 127.626V124.135H307.95V123.277H309.038V121.903H310.011V123.277H311.682V124.135H310.011V127.684C310.011 127.852 310.052 127.97 310.136 128.039C310.22 128.107 310.35 128.142 310.526 128.142H311.682V129H310.239Z" fill="#E63946"/>
<path d="M336.781 128.142V121.892L335.168 122.487V121.56L336.667 120.988H337.754V128.142H339.002V129H335.282V128.142H336.781ZM351.548 127.169C351.548 127.81 351.388 128.275 351.067 128.565C350.754 128.855 350.266 129 349.602 129H347.359V120.988H348.331V123.506C348.56 123.353 348.847 123.277 349.19 123.277H349.602C350.274 123.277 350.766 123.422 351.079 123.712C351.391 123.994 351.548 124.46 351.548 125.108V127.169ZM349.075 124.135C348.824 124.135 348.637 124.204 348.515 124.341C348.393 124.471 348.331 124.612 348.331 124.765V128.142H349.716C349.999 128.142 350.212 128.077 350.357 127.947C350.502 127.817 350.575 127.634 350.575 127.398V124.879C350.575 124.643 350.502 124.46 350.357 124.33C350.212 124.2 349.999 124.135 349.716 124.135H349.075ZM356.173 120.988V122.018H355.085V120.988H356.173ZM353.46 124.135V123.277H356.115V128.142H357.809V129H355.142V124.135H353.46ZM362.239 129C361.85 129 361.553 128.874 361.347 128.622C361.141 128.37 361.038 128.039 361.038 127.626V124.135H359.95V123.277H361.038V121.903H362.011V123.277H363.682V124.135H362.011V127.684C362.011 127.852 362.052 127.97 362.136 128.039C362.22 128.107 362.35 128.142 362.526 128.142H363.682V129H362.239Z" fill="#E63946"/>
<path d="M386.781 128.142V121.892L385.168 122.487V121.56L386.667 120.988H387.754V128.142H389.002V129H385.282V128.142H386.781ZM401.548 127.169C401.548 127.81 401.388 128.275 401.067 128.565C400.754 128.855 400.266 129 399.602 129H397.359V120.988H398.331V123.506C398.56 123.353 398.847 123.277 399.19 123.277H399.602C400.274 123.277 400.766 123.422 401.079 123.712C401.391 123.994 401.548 124.46 401.548 125.108V127.169ZM399.075 124.135C398.824 124.135 398.637 124.204 398.515 124.341C398.393 124.471 398.331 124.612 398.331 124.765V128.142H399.716C399.999 128.142 400.212 128.077 400.357 127.947C400.502 127.817 400.575 127.634 400.575 127.398V124.879C400.575 124.643 400.502 124.46 400.357 124.33C400.212 124.2 399.999 124.135 399.716 124.135H399.075ZM406.173 120.988V122.018H405.085V120.988H406.173ZM403.46 124.135V123.277H406.115V128.142H407.809V129H405.142V124.135H403.46ZM412.239 129C411.85 129 411.553 128.874 411.347 128.622C411.141 128.37 411.038 128.039 411.038 127.626V124.135H409.95V123.277H411.038V121.903H412.011V123.277H413.682V124.135H412.011V127.684C412.011 127.852 412.052 127.97 412.136 128.039C412.22 128.107 412.35 128.142 412.526 128.142H413.682V129H412.239Z" fill="#E63946"/>
<path d="M160.995 38.2177C160.995 39.1921 160.76 39.9023 160.29 40.3484C159.821 40.7828 159.058 41 158.001 41H157.508C156.451 41 155.688 40.7828 155.219 40.3484C154.749 39.9023 154.514 39.1921 154.514 38.2177V36.7385C154.514 35.7172 154.896 34.9952 155.659 34.5725C155.037 34.1382 154.726 33.4573 154.726 32.5298V31.4204C154.726 30.4813 154.972 29.7886 155.465 29.3425C155.958 28.8964 156.663 28.6734 157.578 28.6734H157.931C158.846 28.6734 159.551 28.8964 160.044 29.3425C160.537 29.7886 160.783 30.4813 160.783 31.4204V32.5298C160.783 33.4573 160.472 34.1382 159.85 34.5725C160.613 34.9952 160.995 35.7172 160.995 36.7385V38.2177ZM157.367 29.9941C156.968 30.0058 156.68 30.1173 156.504 30.3287C156.34 30.5282 156.258 30.8393 156.258 31.262V32.7059C156.258 33.0816 156.363 33.3868 156.575 33.6216C156.798 33.8447 157.074 33.968 157.402 33.9914H158.001C158.365 33.9914 158.664 33.874 158.899 33.6392C159.134 33.4044 159.251 33.0933 159.251 32.7059V31.262C159.251 30.8159 159.152 30.493 158.952 30.2934C158.764 30.0939 158.447 29.9941 158.001 29.9941H157.367ZM159.463 36.58C159.463 36.1926 159.345 35.8874 159.11 35.6643C158.876 35.4295 158.565 35.3121 158.177 35.3121H157.332C156.945 35.3121 156.633 35.4295 156.399 35.6643C156.164 35.8874 156.046 36.1926 156.046 36.58V38.3938C156.046 38.8282 156.14 39.151 156.328 39.3623C156.516 39.5736 156.81 39.6793 157.209 39.6793H158.16C158.606 39.6793 158.934 39.5795 159.146 39.3799C159.357 39.1686 159.463 38.8399 159.463 38.3938V36.58ZM179.997 38.1825C179.997 39.1686 179.75 39.8847 179.257 40.3308C178.776 40.7769 178.024 41 177.003 41H173.552V28.6734H175.048V32.5475C175.401 32.3127 175.841 32.1953 176.369 32.1953H177.003C178.036 32.1953 178.793 32.4183 179.275 32.8644C179.756 33.2988 179.997 34.0149 179.997 35.0128V38.1825ZM176.193 33.516C175.806 33.516 175.518 33.6216 175.33 33.8329C175.142 34.0325 175.048 34.2497 175.048 34.4845V39.6793H177.179C177.614 39.6793 177.942 39.5795 178.165 39.3799C178.388 39.1804 178.5 38.8986 178.5 38.5347V34.6606C178.5 34.2967 178.388 34.0149 178.165 33.8153C177.942 33.6158 177.614 33.516 177.179 33.516H176.193ZM187.112 28.6734V30.2582H185.439V28.6734H187.112ZM182.938 33.516V32.1953H187.024V39.6793H189.63V41H185.527V33.516H182.938ZM196.445 41C195.847 41 195.389 40.8063 195.072 40.4189C194.755 40.0315 194.596 39.5208 194.596 38.8869V33.516H192.923V32.1953H194.596V30.0821H196.093V32.1953H198.664V33.516H196.093V38.9749C196.093 39.2332 196.158 39.4151 196.287 39.5208C196.416 39.6265 196.616 39.6793 196.886 39.6793H198.664V41H196.445ZM207.98 38.7988C207.98 39.5384 207.751 40.0902 207.293 40.4541C206.847 40.818 206.196 41 205.339 41H202.715V39.6793H205.515C205.832 39.6793 206.073 39.6147 206.237 39.4856C206.401 39.3447 206.483 39.1451 206.483 38.8869V37.9536C206.483 37.4253 206.231 37.1611 205.726 37.1611H205.075C204.253 37.1611 203.637 36.985 203.226 36.6329C202.826 36.2689 202.627 35.6995 202.627 34.9247V34.4141C202.627 33.6275 202.85 33.064 203.296 32.7235C203.742 32.3714 204.4 32.1953 205.268 32.1953H207.628V33.516H205.092C204.799 33.516 204.564 33.5864 204.388 33.7273C204.212 33.8564 204.124 34.0501 204.124 34.3084V34.9423C204.124 35.2124 204.2 35.4119 204.353 35.5411C204.517 35.6702 204.722 35.7348 204.969 35.7348H205.568C206.354 35.7348 206.953 35.9285 207.364 36.3159C207.775 36.6915 207.98 37.2551 207.98 38.0064V38.7988ZM227.669 33.0757V34.3964H220.977V33.0757H227.669ZM227.669 36.5976V37.9183H220.977V36.5976H227.669ZM242.867 39.6793V30.0645L240.384 30.9802V29.5538L242.691 28.6734H244.364V39.6793H246.284V41H240.56V39.6793H242.867ZM265.585 38.1825C265.585 39.1686 265.338 39.8847 264.845 40.3308C264.364 40.7769 263.613 41 262.591 41H259.14V28.6734H260.637V32.5475C260.989 32.3127 261.429 32.1953 261.957 32.1953H262.591C263.624 32.1953 264.382 32.4183 264.863 32.8644C265.344 33.2988 265.585 34.0149 265.585 35.0128V38.1825ZM261.781 33.516C261.394 33.516 261.106 33.6216 260.918 33.8329C260.731 34.0325 260.637 34.2497 260.637 34.4845V39.6793H262.767C263.202 39.6793 263.53 39.5795 263.754 39.3799C263.977 39.1804 264.088 38.8986 264.088 38.5347V34.6606C264.088 34.2967 263.977 34.0149 263.754 33.8153C263.53 33.6158 263.202 33.516 262.767 33.516H261.781ZM270.287 42.6729C270.569 42.6729 270.78 42.6201 270.921 42.5144C271.062 42.4088 271.168 42.2268 271.238 41.9685L271.485 41H271.133L268.227 32.1953H269.847L272.048 39.5736L273.968 32.1953H275.5L272.77 41.9509C272.618 42.5496 272.43 42.9957 272.207 43.2892C271.984 43.5827 271.731 43.7706 271.45 43.8527C271.18 43.9467 270.827 43.9936 270.393 43.9936H269.548V42.6729H270.287ZM282.034 41C281.435 41 280.977 40.8063 280.66 40.4189C280.343 40.0315 280.185 39.5208 280.185 38.8869V33.516H278.512V32.1953H280.185V30.0821H281.681V32.1953H284.252V33.516H281.681V38.9749C281.681 39.2332 281.746 39.4151 281.875 39.5208C282.004 39.6265 282.204 39.6793 282.474 39.6793H284.252V41H282.034ZM290.786 41C289.753 41 288.996 40.7828 288.514 40.3484C288.033 39.9023 287.792 39.1804 287.792 38.1825V35.0128C287.792 34.0032 288.01 33.2812 288.444 32.8468C288.878 32.4124 289.6 32.1953 290.61 32.1953H291.438C292.271 32.1953 292.899 32.4301 293.322 32.8996C293.756 33.3575 293.973 34.0325 293.973 34.9247V37.214H289.289V38.5347C289.289 38.8986 289.401 39.1804 289.624 39.3799C289.847 39.5795 290.176 39.6793 290.61 39.6793H293.41V41H290.786ZM292.512 34.5725C292.512 34.2673 292.412 34.0149 292.212 33.8153C292.013 33.6158 291.76 33.516 291.455 33.516H290.434C290.011 33.516 289.712 33.6158 289.536 33.8153C289.371 34.0032 289.289 34.2849 289.289 34.6606V35.8933H292.512V34.5725Z" fill="#E63946"/>
<circle cx="37.0833" cy="166.917" r="11.997" fill="white" stroke="black" stroke-width="0.172619"/>
<circle cx="32.5952" cy="163.119" r="0.690476" fill="#272727"/>
<circle cx="41.2262" cy="163.119" r="0.690476" fill="#272727"/>
<path d="M32.25 168.988C36.0669 171.79 38.1112 172.039 41.5714 168.988" stroke="#272727" stroke-width="0.241667"/>
<path d="M30.5238 156.905C31.732 154.638 32.8381 153.42 35.7024 151.381" stroke="#272727" stroke-width="0.138095"/>
<path d="M35.3571 155.179C36.4043 153.195 37.3628 152.129 39.8452 150.345" stroke="#272727" stroke-width="0.138095"/>
<path d="M39.1548 155.179C40.2824 153.054 41.3148 151.912 43.9881 150" stroke="#272727" stroke-width="0.138095"/>
</svg>
