<svg width="189" height="193" viewBox="0 0 189 193" fill="none" xmlns="http://www.w3.org/2000/svg">
<rect width="141" height="90" rx="3" fill="black"/>
<path d="M10.0993 121.524L1.68506 90.5239C1.33988 89.2522 2.29747 88 3.61522 88H138.795C139.536 88 140.217 88.41 140.563 89.0654L156.949 120.065C157.653 121.397 156.687 123 155.181 123H12.0295C11.1267 123 10.3358 122.395 10.0993 121.524Z" fill="#E5E5E5" stroke="black"/>
<path d="M19.0559 51V38.8515H21.6244V43.864H26.8385V38.8515H29.401V51H26.8385V45.9816H21.6244V51H19.0559ZM34.0694 51.172C33.4881 51.172 32.97 51.0712 32.5153 50.8695C32.0605 50.6639 31.7006 50.3613 31.4357 49.9619C31.1747 49.5586 31.0442 49.0563 31.0442 48.4552C31.0442 47.949 31.1371 47.5239 31.323 47.1799C31.5088 46.8358 31.7619 46.559 32.0822 46.3494C32.4026 46.1398 32.7664 45.9816 33.1737 45.8749C33.585 45.7681 34.016 45.693 34.4668 45.6495C34.9968 45.5941 35.4239 45.5427 35.7481 45.4952C36.0724 45.4438 36.3077 45.3687 36.454 45.2698C36.6003 45.171 36.6735 45.0246 36.6735 44.8309V44.7953C36.6735 44.4196 36.5549 44.1289 36.3176 43.9233C36.0843 43.7177 35.7521 43.6148 35.321 43.6148C34.8663 43.6148 34.5044 43.7157 34.2355 43.9174C33.9666 44.1151 33.7886 44.3642 33.7016 44.6648L31.3645 44.475C31.4831 43.9213 31.7164 43.4428 32.0644 43.0394C32.4124 42.6321 32.8613 42.3197 33.411 42.1022C33.9646 41.8808 34.6053 41.77 35.3329 41.77C35.8391 41.77 36.3235 41.8293 36.7862 41.948C37.2528 42.0666 37.6661 42.2505 38.026 42.4996C38.3898 42.7488 38.6765 43.0691 38.8861 43.4606C39.0957 43.8482 39.2005 44.3128 39.2005 44.8546V51H36.804V49.7365H36.7328C36.5865 50.0212 36.3907 50.2724 36.1456 50.4899C35.9004 50.7034 35.6058 50.8715 35.2617 50.9941C34.9177 51.1127 34.5202 51.172 34.0694 51.172ZM34.7931 49.4281C35.1648 49.4281 35.4931 49.3549 35.7778 49.2086C36.0625 49.0583 36.286 48.8566 36.4481 48.6035C36.6102 48.3504 36.6913 48.0637 36.6913 47.7434V46.7765C36.6122 46.8279 36.5035 46.8754 36.365 46.9189C36.2306 46.9584 36.0783 46.996 35.9083 47.0316C35.7382 47.0632 35.5682 47.0929 35.3982 47.1206C35.2281 47.1443 35.0739 47.166 34.9355 47.1858C34.6389 47.2293 34.3798 47.2985 34.1584 47.3934C33.9369 47.4883 33.7649 47.6169 33.6423 47.779C33.5197 47.9372 33.4584 48.1349 33.4584 48.3722C33.4584 48.7162 33.583 48.9792 33.8321 49.1611C34.0852 49.3391 34.4056 49.4281 34.7931 49.4281ZM41.161 54.4168V41.8887H43.6523V43.4191H43.765C43.8758 43.1739 44.0359 42.9248 44.2455 42.6717C44.4591 42.4146 44.7359 42.2011 45.076 42.031C45.42 41.857 45.8471 41.77 46.3573 41.77C47.0216 41.77 47.6346 41.944 48.1961 42.292C48.7577 42.6361 49.2065 43.1561 49.5427 43.8521C49.8788 44.5442 50.0469 45.4122 50.0469 46.4562C50.0469 47.4725 49.8828 48.3307 49.5545 49.0306C49.2303 49.7266 48.7874 50.2546 48.2258 50.6144C47.6682 50.9703 47.0434 51.1483 46.3513 51.1483C45.861 51.1483 45.4438 51.0672 45.0997 50.9051C44.7596 50.743 44.4808 50.5393 44.2633 50.2941C44.0458 50.045 43.8797 49.7939 43.765 49.5408H43.6879V54.4168H41.161ZM43.6345 46.4443C43.6345 46.9861 43.7097 47.4587 43.86 47.862C44.0102 48.2654 44.2277 48.5798 44.5125 48.8052C44.7972 49.0267 45.1432 49.1374 45.5505 49.1374C45.9618 49.1374 46.3098 49.0247 46.5945 48.7993C46.8793 48.5699 47.0948 48.2535 47.2411 47.8502C47.3914 47.4429 47.4665 46.9742 47.4665 46.4443C47.4665 45.9184 47.3934 45.4557 47.247 45.0563C47.1007 44.6569 46.8852 44.3445 46.6005 44.119C46.3157 43.8936 45.9658 43.7809 45.5505 43.7809C45.1393 43.7809 44.7913 43.8897 44.5065 44.1072C44.2258 44.3247 44.0102 44.6331 43.86 45.0325C43.7097 45.432 43.6345 45.9026 43.6345 46.4443ZM51.7315 54.4168V41.8887H54.2229V43.4191H54.3356C54.4463 43.1739 54.6065 42.9248 54.8161 42.6717C55.0296 42.4146 55.3065 42.2011 55.6466 42.031C55.9906 41.857 56.4177 41.77 56.9278 41.77C57.5922 41.77 58.2052 41.944 58.7667 42.292C59.3283 42.6361 59.7771 43.1561 60.1133 43.8521C60.4494 44.5442 60.6175 45.4122 60.6175 46.4562C60.6175 47.4725 60.4533 48.3307 60.1251 49.0306C59.8008 49.7266 59.3579 50.2546 58.7964 50.6144C58.2388 50.9703 57.614 51.1483 56.9219 51.1483C56.4315 51.1483 56.0143 51.0672 55.6703 50.9051C55.3302 50.743 55.0514 50.5393 54.8339 50.2941C54.6164 50.045 54.4503 49.7939 54.3356 49.5408H54.2585V54.4168H51.7315ZM54.2051 46.4443C54.2051 46.9861 54.2803 47.4587 54.4305 47.862C54.5808 48.2654 54.7983 48.5798 55.083 48.8052C55.3678 49.0267 55.7138 49.1374 56.1211 49.1374C56.5324 49.1374 56.8804 49.0247 57.1651 48.7993C57.4498 48.5699 57.6654 48.2535 57.8117 47.8502C57.962 47.4429 58.0371 46.9742 58.0371 46.4443C58.0371 45.9184 57.9639 45.4557 57.8176 45.0563C57.6713 44.6569 57.4558 44.3445 57.171 44.119C56.8863 43.8936 56.5363 43.7809 56.1211 43.7809C55.7098 43.7809 55.3618 43.8897 55.0771 44.1072C54.7963 44.3247 54.5808 44.6331 54.4305 45.0325C54.2803 45.432 54.2051 45.9026 54.2051 46.4443ZM63.5686 54.4168C63.2482 54.4168 62.9477 54.391 62.6669 54.3396C62.3901 54.2922 62.1607 54.2309 61.9788 54.1558L62.5483 52.2694C62.8449 52.3604 63.1118 52.4098 63.3491 52.4177C63.5903 52.4256 63.7979 52.3703 63.9719 52.2516C64.1499 52.133 64.2942 51.9313 64.405 51.6466L64.5533 51.261L61.2848 41.8887H63.9423L65.8286 48.5798H65.9235L67.8276 41.8887H70.5029L66.9616 51.9847C66.7915 52.4751 66.5602 52.9022 66.2676 53.266C65.9789 53.6337 65.6131 53.9165 65.1702 54.1142C64.7273 54.3159 64.1934 54.4168 63.5686 54.4168Z" fill="white"/>
<rect x="73" y="35" width="50" height="20" rx="2" fill="#FFA31A"/>
<path d="M84.1113 42.7784C84.0283 42.4898 83.9116 42.2347 83.7614 42.0132C83.6111 41.7878 83.4272 41.598 83.2097 41.4438C82.9961 41.2856 82.751 41.165 82.4741 41.0819C82.2013 40.9989 81.8988 40.9574 81.5666 40.9574C80.9457 40.9574 80.4 41.1116 79.9294 41.42C79.4627 41.7285 79.0989 42.1773 78.8379 42.7666C78.5769 43.3519 78.4464 44.0676 78.4464 44.9139C78.4464 45.7602 78.5749 46.4799 78.832 47.0731C79.089 47.6663 79.4529 48.1191 79.9234 48.4315C80.394 48.74 80.9497 48.8942 81.5903 48.8942C82.1716 48.8942 82.6679 48.7914 83.0792 48.5857C83.4944 48.3761 83.8108 48.0815 84.0283 47.7019C84.2497 47.3222 84.3605 46.8734 84.3605 46.3554L84.8825 46.4325H81.7505V44.4987H86.8341V46.0291C86.8341 47.0968 86.6087 48.0143 86.1578 48.7815C85.707 49.5447 85.0861 50.1339 84.2952 50.5492C83.5043 50.9605 82.5987 51.1661 81.5784 51.1661C80.4395 51.1661 79.439 50.915 78.5769 50.4127C77.7148 49.9066 77.0425 49.1888 76.5601 48.2595C76.0816 47.3262 75.8423 46.2189 75.8423 44.9376C75.8423 43.9529 75.9847 43.075 76.2694 42.3039C76.5581 41.5288 76.9615 40.8723 77.4795 40.3345C77.9976 39.7967 78.6006 39.3874 79.2887 39.1066C79.9768 38.8258 80.7223 38.6855 81.525 38.6855C82.2131 38.6855 82.8538 38.7863 83.447 38.988C84.0402 39.1857 84.5661 39.4665 85.0248 39.8303C85.4875 40.1941 85.8652 40.6272 86.1578 41.1294C86.4505 41.6277 86.6383 42.1773 86.7214 42.7784H84.1113ZM88.7159 51V41.8887H91.1658V43.4784H91.2607C91.4268 42.9129 91.7056 42.4858 92.0971 42.1971C92.4886 41.9045 92.9394 41.7582 93.4496 41.7582C93.5761 41.7582 93.7126 41.7661 93.8589 41.7819C94.0052 41.7977 94.1337 41.8195 94.2444 41.8471V44.0894C94.1258 44.0538 93.9617 44.0222 93.7521 43.9945C93.5425 43.9668 93.3507 43.9529 93.1767 43.9529C92.805 43.9529 92.4728 44.034 92.1802 44.1962C91.8915 44.3543 91.6621 44.5758 91.4921 44.8605C91.326 45.1453 91.2429 45.4735 91.2429 45.8452V51H88.7159ZM95.5509 51V41.8887H98.0779V51H95.5509ZM96.8204 40.7142C96.4447 40.7142 96.1224 40.5896 95.8535 40.3404C95.5885 40.0874 95.456 39.7848 95.456 39.4329C95.456 39.0849 95.5885 38.7863 95.8535 38.5372C96.1224 38.2841 96.4447 38.1575 96.8204 38.1575C97.196 38.1575 97.5164 38.2841 97.7813 38.5372C98.0502 38.7863 98.1847 39.0849 98.1847 39.4329C98.1847 39.7848 98.0502 40.0874 97.7813 40.3404C97.5164 40.5896 97.196 40.7142 96.8204 40.7142ZM102.629 45.7325V51H100.102V41.8887H102.51V43.4962H102.617C102.819 42.9663 103.157 42.5471 103.632 42.2386C104.106 41.9262 104.682 41.77 105.358 41.77C105.991 41.77 106.542 41.9084 107.013 42.1853C107.483 42.4621 107.849 42.8575 108.11 43.3716C108.371 43.8818 108.502 44.4908 108.502 45.1986V51H105.975V45.6495C105.979 45.0919 105.836 44.6569 105.548 44.3445C105.259 44.0281 104.861 43.8699 104.355 43.8699C104.015 43.8699 103.715 43.9431 103.454 44.0894C103.197 44.2357 102.995 44.4492 102.849 44.73C102.706 45.0068 102.633 45.341 102.629 45.7325ZM113.851 51.1483C113.159 51.1483 112.532 50.9703 111.97 50.6144C111.413 50.2546 110.97 49.7266 110.642 49.0306C110.317 48.3307 110.155 47.4725 110.155 46.4562C110.155 45.4122 110.323 44.5442 110.659 43.8521C110.996 43.1561 111.442 42.6361 112 42.292C112.562 41.944 113.176 41.77 113.845 41.77C114.355 41.77 114.78 41.857 115.12 42.031C115.464 42.2011 115.741 42.4146 115.951 42.6717C116.164 42.9248 116.326 43.1739 116.437 43.4191H116.514V38.8515H119.035V51H116.544V49.5408H116.437C116.318 49.7939 116.15 50.045 115.933 50.2941C115.719 50.5393 115.44 50.743 115.096 50.9051C114.756 51.0672 114.341 51.1483 113.851 51.1483ZM114.652 49.1374C115.059 49.1374 115.403 49.0267 115.684 48.8052C115.968 48.5798 116.186 48.2654 116.336 47.862C116.49 47.4587 116.568 46.9861 116.568 46.4443C116.568 45.9026 116.492 45.432 116.342 45.0325C116.192 44.6331 115.974 44.3247 115.69 44.1072C115.405 43.8897 115.059 43.7809 114.652 43.7809C114.236 43.7809 113.886 43.8936 113.602 44.119C113.317 44.3445 113.101 44.6569 112.955 45.0563C112.809 45.4557 112.736 45.9184 112.736 46.4443C112.736 46.9742 112.809 47.4429 112.955 47.8502C113.105 48.2535 113.321 48.5699 113.602 48.7993C113.886 49.0247 114.236 49.1374 114.652 49.1374Z" fill="black"/>
<circle cx="122.703" cy="126.984" r="65.2332" fill="white" stroke="black" stroke-width="0.938607"/>
<path d="M87.0355 72.5443C93.6051 60.2199 99.6192 53.5963 115.194 42.5089" stroke="#A8A8A8" stroke-width="0.750886"/>
<path d="M113.316 63.1582C119.01 52.3744 124.222 46.5787 137.72 36.8772" stroke="#A8A8A8" stroke-width="0.750886"/>
<path d="M133.966 63.1582C140.097 51.6041 145.711 45.3945 160.247 35" stroke="#A8A8A8" stroke-width="0.750886"/>
</svg>
